<svg width="229" height="50" viewBox="0 0 229 50" fill="none" xmlns="http://www.w3.org/2000/svg">
<path d="M26.448 15C24.784 15.672 22.336 16.008 19.104 16.008C20.768 16.712 21.984 17.576 22.752 18.6C23.52 19.624 23.904 20.952 23.904 22.584C23.904 24.216 23.472 25.688 22.608 27C21.744 28.28 20.496 29.288 18.864 30.024C17.264 30.76 15.376 31.128 13.2 31.128C12.176 31.128 11.2 31.032 10.272 30.84C10.016 30.968 9.808 31.176 9.648 31.464C9.52 31.72 9.456 31.992 9.456 32.28C9.456 32.76 9.632 33.144 9.984 33.432C10.368 33.688 11.12 33.816 12.24 33.816H16.08C18.032 33.816 19.744 34.136 21.216 34.776C22.688 35.416 23.824 36.296 24.624 37.416C25.424 38.536 25.824 39.8 25.824 41.208C25.824 43.864 24.672 45.928 22.368 47.4C20.096 48.904 16.8 49.656 12.48 49.656C9.376 49.656 6.928 49.32 5.136 48.648C3.344 48.008 2.08 47.096 1.344 45.912C0.64 44.728 0.288 43.24 0.288 41.448H7.104C7.104 42.216 7.248 42.824 7.536 43.272C7.856 43.72 8.416 44.056 9.216 44.28C10.016 44.504 11.168 44.616 12.672 44.616C14.752 44.616 16.192 44.36 16.992 43.848C17.792 43.368 18.192 42.664 18.192 41.736C18.192 40.968 17.888 40.36 17.28 39.912C16.672 39.464 15.76 39.24 14.544 39.24H10.848C8.224 39.24 6.256 38.776 4.944 37.848C3.664 36.888 3.024 35.672 3.024 34.2C3.024 33.272 3.296 32.376 3.84 31.512C4.384 30.616 5.12 29.88 6.048 29.304C4.448 28.44 3.28 27.432 2.544 26.28C1.84 25.096 1.488 23.672 1.488 22.008C1.488 19.16 2.512 16.904 4.56 15.24C6.608 13.544 9.312 12.696 12.672 12.696C15.232 12.76 17.392 12.504 19.152 11.928C20.944 11.352 22.784 10.504 24.672 9.384L26.448 15ZM12.864 17.688C11.68 17.688 10.736 18.072 10.032 18.84C9.36 19.576 9.024 20.6 9.024 21.912C9.024 23.288 9.36 24.36 10.032 25.128C10.736 25.864 11.68 26.232 12.864 26.232C14.112 26.232 15.056 25.864 15.696 25.128C16.368 24.392 16.704 23.288 16.704 21.816C16.704 19.064 15.424 17.688 12.864 17.688ZM36.1815 39.816C33.9735 39.816 32.2455 39.192 30.9975 37.944C29.7815 36.664 29.1735 34.856 29.1735 32.52V3.384L36.7575 2.568V32.232C36.7575 33.288 37.1895 33.816 38.0535 33.816C38.5015 33.816 38.9175 33.736 39.3015 33.576L40.7895 38.952C39.4135 39.528 37.8775 39.816 36.1815 39.816ZM71.8395 12.696C73.8555 12.696 75.4715 13.384 76.6875 14.76C77.9035 16.104 78.5115 17.976 78.5115 20.376V39H70.9275V21.672C70.9275 19.4 70.2075 18.264 68.7675 18.264C67.9675 18.264 67.2635 18.536 66.6555 19.08C66.0475 19.624 65.4555 20.456 64.8795 21.576V39H57.2955V21.672C57.2955 19.4 56.5755 18.264 55.1355 18.264C54.3675 18.264 53.6635 18.552 53.0235 19.128C52.4155 19.672 51.8235 20.488 51.2475 21.576V39H43.6635V13.512H50.2875L50.8155 16.488C51.8075 15.208 52.8955 14.264 54.0795 13.656C55.2955 13.016 56.6715 12.696 58.2075 12.696C59.6475 12.696 60.8795 13.048 61.9035 13.752C62.9595 14.456 63.7275 15.448 64.2075 16.728C65.2315 15.352 66.3515 14.344 67.5675 13.704C68.8155 13.032 70.2395 12.696 71.8395 12.696ZM95.2504 12.696C97.0104 12.696 98.5944 12.952 100.002 13.464C101.41 13.976 102.738 14.76 103.986 15.816L100.722 20.328C99.1224 19.112 97.5064 18.504 95.8744 18.504C94.1784 18.504 92.8984 19.128 92.0344 20.376C91.1704 21.624 90.7384 23.64 90.7384 26.424C90.7384 29.112 91.1704 31.016 92.0344 32.136C92.8984 33.256 94.1464 33.816 95.7784 33.816C96.6424 33.816 97.4264 33.688 98.1304 33.432C98.8344 33.144 99.6824 32.696 100.674 32.088L103.986 36.792C101.458 38.808 98.5944 39.816 95.3944 39.816C92.8024 39.816 90.5624 39.272 88.6744 38.184C86.7864 37.064 85.3304 35.512 84.3064 33.528C83.2824 31.512 82.7704 29.16 82.7704 26.472C82.7704 23.784 83.2824 21.4 84.3064 19.32C85.3304 17.24 86.7864 15.624 88.6744 14.472C90.5624 13.288 92.7544 12.696 95.2504 12.696ZM122.107 12.696C124.315 12.696 126.043 13.368 127.291 14.712C128.539 16.056 129.163 17.944 129.163 20.376V39H121.579V21.672C121.579 20.392 121.371 19.512 120.955 19.032C120.539 18.52 119.947 18.264 119.179 18.264C117.643 18.264 116.171 19.352 114.763 21.528V39H107.179V3.384L114.763 2.616V16.248C115.819 15.064 116.939 14.184 118.123 13.608C119.307 13 120.635 12.696 122.107 12.696ZM155.138 31.608C155.138 32.568 155.266 33.272 155.522 33.72C155.81 34.168 156.258 34.504 156.866 34.728L155.282 39.672C153.714 39.544 152.434 39.208 151.442 38.664C150.45 38.088 149.682 37.192 149.138 35.976C147.474 38.536 144.914 39.816 141.458 39.816C138.93 39.816 136.914 39.08 135.41 37.608C133.906 36.136 133.154 34.216 133.154 31.848C133.154 29.064 134.178 26.936 136.226 25.464C138.274 23.992 141.234 23.256 145.106 23.256H147.698V22.152C147.698 20.648 147.378 19.624 146.738 19.08C146.098 18.504 144.978 18.216 143.378 18.216C142.546 18.216 141.538 18.344 140.354 18.6C139.17 18.824 137.954 19.144 136.706 19.56L134.978 14.568C136.578 13.96 138.21 13.496 139.874 13.176C141.57 12.856 143.138 12.696 144.578 12.696C148.226 12.696 150.898 13.448 152.594 14.952C154.29 16.456 155.138 18.712 155.138 21.72V31.608ZM143.666 34.392C145.394 34.392 146.738 33.576 147.698 31.944V27.432H145.826C144.098 27.432 142.802 27.736 141.938 28.344C141.106 28.952 140.69 29.896 140.69 31.176C140.69 32.2 140.946 33 141.458 33.576C142.002 34.12 142.738 34.392 143.666 34.392ZM167.478 39.816C165.27 39.816 163.542 39.192 162.294 37.944C161.078 36.664 160.47 34.856 160.47 32.52V3.384L168.054 2.568V32.232C168.054 33.288 168.486 33.816 169.35 33.816C169.798 33.816 170.214 33.736 170.598 33.576L172.086 38.952C170.71 39.528 169.174 39.816 167.478 39.816ZM182.544 13.512V39H174.96V13.512H182.544ZM178.704 0.0719976C180.016 0.0719976 181.088 0.487998 181.92 1.32C182.784 2.12 183.216 3.144 183.216 4.392C183.216 5.64 182.784 6.68 181.92 7.512C181.088 8.312 180.016 8.712 178.704 8.712C177.392 8.712 176.32 8.312 175.488 7.512C174.656 6.68 174.24 5.64 174.24 4.392C174.24 3.144 174.656 2.12 175.488 1.32C176.32 0.487998 177.392 0.0719976 178.704 0.0719976ZM204.491 37.8C203.563 38.44 202.475 38.936 201.227 39.288C200.011 39.64 198.795 39.816 197.579 39.816C192.011 39.784 189.227 36.712 189.227 30.6V18.792H185.627V13.512H189.227V7.992L196.811 7.128V13.512H202.667L201.851 18.792H196.811V30.504C196.811 31.688 197.003 32.536 197.387 33.048C197.771 33.56 198.379 33.816 199.211 33.816C200.075 33.816 200.987 33.544 201.947 33L204.491 37.8ZM226.716 31.608C226.716 32.568 226.844 33.272 227.1 33.72C227.388 34.168 227.836 34.504 228.444 34.728L226.86 39.672C225.292 39.544 224.012 39.208 223.02 38.664C222.028 38.088 221.26 37.192 220.716 35.976C219.052 38.536 216.492 39.816 213.036 39.816C210.508 39.816 208.492 39.08 206.988 37.608C205.484 36.136 204.732 34.216 204.732 31.848C204.732 29.064 205.756 26.936 207.804 25.464C209.852 23.992 212.812 23.256 216.684 23.256H219.276V22.152C219.276 20.648 218.956 19.624 218.316 19.08C217.676 18.504 216.556 18.216 214.956 18.216C214.124 18.216 213.116 18.344 211.932 18.6C210.748 18.824 209.532 19.144 208.284 19.56L206.556 14.568C208.156 13.96 209.788 13.496 211.452 13.176C213.148 12.856 214.716 12.696 216.156 12.696C219.804 12.696 222.476 13.448 224.172 14.952C225.868 16.456 226.716 18.712 226.716 21.72V31.608ZM215.244 34.392C216.972 34.392 218.316 33.576 219.276 31.944V27.432H217.404C215.676 27.432 214.38 27.736 213.516 28.344C212.684 28.952 212.268 29.896 212.268 31.176C212.268 32.2 212.524 33 213.036 33.576C213.58 34.12 214.316 34.392 215.244 34.392Z" fill="#141414"/>
</svg>
